<?xml version="1.0" encoding="UTF-8" standalone="no"?>
<!DOCTYPE svg PUBLIC "-//W3C//DTD SVG 1.1//EN" "http://www.w3.org/Graphics/SVG/1.1/DTD/svg11.dtd">
<svg version="1.1" xmlns="http://www.w3.org/2000/svg" xmlns:xlink="http://www.w3.org/1999/xlink" preserveAspectRatio="xMidYMid meet" viewBox="0 0 640 640" width="640" height="640"><defs><path d="M142.21 118.13C108.46 140.94 70.49 179.84 67.21 257.5C63.93 335.16 50.34 336.88 129.09 428.75C207.84 520.63 286.59 503.12 353.46 496.87C420.34 490.62 487.84 423.13 522.21 334.38C556.59 245.63 497.21 143.75 412.84 92.5C356.59 58.33 287.21 56.04 204.71 85.63C185.55 92.08 164.71 102.92 142.21 118.13Z" id="haVM4YIqy"></path><path d="M450.37 491.55C488.88 478.25 535.62 450.49 558.89 376.33C582.16 302.17 595.73 304.03 543.45 194.9C491.16 85.78 410.56 82.3 344.35 71.03C278.13 59.75 195.46 107.48 139.29 184.31C83.12 261.14 114.1 374.91 182.34 446.25C227.83 493.82 294.24 513.99 381.59 506.76C401.77 505.48 424.7 500.41 450.37 491.55Z" id="i4rfE2j7Ry"></path><path d="M198.77 166.25C165.02 189.06 127.05 227.97 123.77 305.63C120.49 383.28 106.9 385 185.65 476.88C264.4 568.75 343.15 551.25 410.02 545C476.9 538.75 544.4 471.25 578.77 382.5C613.15 293.75 553.77 191.88 469.4 140.63C413.15 106.46 343.77 104.17 261.27 133.75C242.11 140.21 221.27 151.04 198.77 166.25Z" id="a39pW1MTzO"></path><path d="M416 535.3C454.5 522 501.25 494.24 524.51 420.08C547.78 345.92 561.36 347.78 509.07 238.65C456.78 129.53 376.19 126.05 309.97 114.78C243.76 103.5 161.09 151.23 104.91 228.06C48.74 304.89 79.73 418.66 147.96 490C193.45 537.57 259.87 557.74 347.21 550.51C367.4 549.23 390.33 544.16 416 535.3Z" id="dGFf1AX2"></path></defs><g><g><g><use xlink:href="#haVM4YIqy" opacity="0.49" fill="#1aa5ed" fill-opacity="1"></use></g><g><use xlink:href="#i4rfE2j7Ry" opacity="0.49" fill="#ed1ad7" fill-opacity="1"></use></g><g><use xlink:href="#a39pW1MTzO" opacity="0.49" fill="#1aa5ed" fill-opacity="1"></use></g><g><use xlink:href="#dGFf1AX2" opacity="0.49" fill="#ed1ad7" fill-opacity="1"></use></g></g></g></svg>