<?xml version="1.0" encoding="UTF-8" standalone="no"?>
<svg
   xmlns:dc="http://purl.org/dc/elements/1.1/"
   xmlns:cc="http://creativecommons.org/ns#"
   xmlns:rdf="http://www.w3.org/1999/02/22-rdf-syntax-ns#"
   xmlns:svg="http://www.w3.org/2000/svg"
   xmlns="http://www.w3.org/2000/svg"
   xmlns:sodipodi="http://sodipodi.sourceforge.net/DTD/sodipodi-0.dtd"
   xmlns:inkscape="http://www.inkscape.org/namespaces/inkscape"
   class="stroke-current text-white-100"
   version="1.1"
   id="svg833"
   xml:space="preserve"
   width="1866.6667"
   height="1306.6667"
   viewBox="0 0 1866.6667 1306.6667"
   sodipodi:docname="ClassKarma.svg"
   inkscape:version="1.0.1 (c497b03c, 2020-09-10)"><metadata
     id="metadata839"><rdf:RDF><cc:Work
         rdf:about=""><dc:format>image/svg+xml</dc:format><dc:type
           rdf:resource="http://purl.org/dc/dcmitype/StillImage" /><dc:title /></cc:Work></rdf:RDF></metadata><defs
     id="defs837"><clipPath
       clipPathUnits="userSpaceOnUse"
       id="clipPath851"><path
         d="M 0,980 H 1400 V 0 H 0 Z"
         id="path849" /></clipPath></defs><sodipodi:namedview
     pagecolor="#ffffff"
     bordercolor="#ffffff"
     borderopacity="1"
     objecttolerance="10"
     gridtolerance="10"
     guidetolerance="10"
     inkscape:pageopacity="0"
     inkscape:pageshadow="2"
     inkscape:window-width="2560"
     inkscape:window-height="1395"
     id="namedview835"
     showgrid="false"
     inkscape:zoom="0.76074517"
     inkscape:cx="1170.733"
     inkscape:cy="653.73215"
     inkscape:window-x="1080"
     inkscape:window-y="210"
     inkscape:window-maximized="0"
     inkscape:current-layer="g993"
     inkscape:document-rotation="0" /><g
     id="g841"
     inkscape:groupmode="layer"
     inkscape:label="loop lines"
     transform="matrix(1.3333333,0,0,-1.3333333,0,1306.6667)"><g
       id="g845"><g
         id="g993"
         transform="matrix(1.8260574,1.8260574,-1.8260574,1.8260574,857.9242,671.97604)"><path
           d="m 0,0 33.068,33.067 c 8.836,8.835 20.582,13.702 33.075,13.702 12.493,0 24.239,-4.867 33.072,-13.702 8.834,-8.832 13.697,-20.576 13.697,-33.067 0,-12.493 -4.866,-24.238 -13.701,-33.072 -8.832,-8.834 -20.575,-13.699 -33.066,-13.699 -12.492,0 -24.236,4.865 -33.071,13.7 z m -32.175047,-85.004953 c 0,-5.718 -2.228,-11.093998 -6.272,-15.137997 -4.042,-4.043 -9.416,-6.269 -15.136,-6.269 -5.716,0 -11.092,2.224 -15.135,6.267 l 0.001,0.002 -15.708953,15.70995 30.275,30.276 15.707953,-15.707953 -0.003,-0.002 c 4.043,-4.043 6.271,-9.419 6.271,-15.138 M -108.308,-84.433 l -36.245,-36.245 c -8.346,-8.346 -21.929,-8.346 -30.276,0 -4.043,4.043 -6.271,9.419 -6.271,15.137 0,5.719 2.228,11.095 6.271,15.138 l 0,0.001 36.246,36.245 z M -192.745,0 -225.813,-33.071 c -8.835,-8.835 -20.58,-13.7 -33.072,-13.7 -12.491,0 -24.237,4.865 -33.071,13.699 -18.232,18.235 -18.232,47.906 -10e-4,66.14 8.835,8.834 20.581,13.701 33.072,13.701 12.493,0 24.237,-4.867 33.072,-13.701 z m 32.18105,85.002953 c 0,5.719 2.228,11.094998 6.271,15.137997 8.347,8.346 21.93,8.346 30.276,0 L -108.308,84.432 l -30.275,-30.276 -15.70995,15.708953 0,0.001 c -4.043,4.043 -6.271,9.419 -6.271,15.137 M -48.182,120.679 c 4.043,4.043 9.419,6.268 15.135,6.268 5.72,0 11.094,-2.226 15.137,-6.27 4.043,-4.043 6.271,-9.419 6.271,-15.138 0,-5.718 -2.228,-11.094 -6.271,-15.137 l 0.003,-0.003 C -29.810519,78.495808 -42.577955,65.728727 -54.151,54.156 l -30.275,30.276 36.245,36.246 z M -84.431,0 -54.156,30.274 -23.881,0 -54.156,-30.275 Z M -126.645,42.213 -96.367,72.49 -66.094,42.218 -96.373,11.94 Z M -108.313,0 -138.588,-30.275 -168.864,0 l 30.276,30.274 z m 42.219,-42.219 -30.273,-30.273 -30.278,30.278 30.272,30.274 z M 111.155,45.008 C 99.133,57.032 83.147,63.654 66.143,63.654 49.14,63.654 33.154,57.032 21.129,45.008 L -11.94,11.94 -42.213,42.213 c 11.831474,11.831799 24.127929,24.128594 36.248,36.249 l -0.003,0.003 c 7.233,7.232 11.215,16.846 11.215,27.074 0,10.231 -3.983,19.846 -11.216,27.078 -7.231,7.233 -16.846,11.217 -27.078,11.217 -10.228,0 -19.846,-3.982 -27.078,-11.216 l 0.002,-0.002 -36.244,-36.244 -15.70995,15.70895 v 0.001 c -14.929,14.93 -39.226,14.93 -54.156,0 -7.233,-7.233 -11.217,-16.847999 -11.217,-27.078997 0,-10.229 3.984,-19.845 11.217,-27.079 L -150.526,42.218 -180.805,11.94 -213.872,45.008 c -12.023,12.024 -28.009,18.646 -45.013,18.646 -17.001,0 -32.988,-6.622 -45.012,-18.646 -24.816,-24.818 -24.816,-65.2 10e-4,-90.022 12.023,-12.022 28.008,-18.643 45.011,-18.643 17.002,0 32.987,6.621 45.013,18.645 l 33.067,33.072 30.279,-30.279 -36.243,-36.243 c -7.233,-7.233 -11.217,-16.849 -11.217,-27.079 0,-10.23 3.984,-19.845 11.217,-27.079 7.466,-7.464 17.272,-11.195 27.079,-11.195 9.806,0 19.612,3.731 27.077,11.195 v 0.002 l 36.246,36.245 15.707953,-15.70795 -0.002,-0.003 c 7.232,-7.233 16.85,-11.215 27.078,-11.215 10.232,0 19.847,3.983 27.076,11.215 7.235,7.234 11.218,16.848999 11.218,27.078997 0,10.228 -3.982,19.843 -11.215,27.075 l 0.003,0.003 L -42.213,-42.214 -11.94,-11.94 21.135,-45.012 c 12.021,-12.023 28.008,-18.645 45.01,-18.645 l 0.001,0 c 17,0 32.987,6.622 45.006,18.643 12.024,12.024 18.646,28.009 18.646,45.012 0.002,17.003 -6.621,32.988 -18.643,45.01"
           style="fill:#ffffff;fill-opacity:1;fill-rule:nonzero;stroke:none"
           id="path995"
           sodipodi:nodetypes="ccscscsccccsccccccccscsccccccsccsccccsccccccscscccccccccccccccccccccccccccscccccscscccccssccccsccscccsscscccccscscccccssccc" /></g></g></g></svg>
